<svg version="1" xmlns="http://www.w3.org/2000/svg" width="933.333" height="933.333" viewBox="0 0 700.000000 700.000000"><path d="M14.7 176.4c-6.1 2.2-9.9 6-13 12.9C.1 193 0 202.4.2 351.4.5 507.4.5 509.5 2.5 513c2.8 4.8 7 8.5 11.8 10.4 3.8 1.5 29.1 1.6 293.2 1.4l289-.3 4-2.2c5-2.6 7.8-5.7 10.1-10.8 1.5-3.5 1.7-8.2 1.9-38.5.2-19 .3-34.7.4-35 0-.3 14.8-.6 32.9-.6 18 0 34.5-.3 36.6-.6 5.8-.9 11.6-5.5 14.8-11.7l2.9-5.4-.3-70.6-.3-70.6-2.2-4.2c-1.3-2.3-3.7-5.3-5.5-6.6-6.9-5-8-5.2-44.8-5.2h-34.5l-.1-34.5c-.1-19-.4-35.5-.7-36.8-1.5-5.8-6.5-11.4-13-14.4-3.5-1.7-19.7-1.8-292-1.8-238.2.1-288.9.3-292 1.4zM562.6 219h6.2v262h-13.1c-119.5.3-511.1 0-511.5-.4-.7-.7-.7-260 .1-261.2.4-.7 433.2-1 518.3-.4zm93.5 87.9c.1.8.1 84.3 0 85.7-.1 1.2-43 1.7-43.2.5-.7-3-.3-85.7.4-86.2 1.1-.8 42.7-.8 42.8 0z"/><path d="M88.1 263c-.8.6-.9 173.9-.1 174.1.3.1 20 .2 43.8.3l43.2.1v-175h-43.1c-23.7 0-43.4.2-43.8.5z"/></svg>